<svg version="1.1" xmlns="http://www.w3.org/2000/svg" viewBox="-138.37696282421763 -42.40846412461934 277.750540826783 90.49666694552349" fill="none" stroke="black" stroke-width="0.6%" vector-effect="non-scaling-stroke">
    <path d="M -14.46935 45.14404 L -14.46935 16.54387 L -4.49049 18.39716 L 0.54916 17.65406 L 5.03964 18.48804 L 16.23885 16.8367 L 11.74836 16.00272 L 16.78801 15.25961 L 13.12909 14.58007" />
    <path d="M -4.49049 46.99733 L -4.49049 18.39716" />
    <path d="M -14.46935 45.14404 L -4.49049 46.99733 L 0.54916 46.25422 L 5.03964 47.0882 L 16.23885 45.43686 L 16.23885 16.8367" />
    <path d="M -9.42971 15.80077 L -14.46935 16.54387" />
    <path d="M 0.54916 46.25422 L 0.54916 17.65406" />
    <path d="M 16.23885 43.94075 L 16.78801 43.85978 L 16.78801 15.25961" />
    <path d="M 138.37358 24.71273 L 16.78801 42.64072" />
    <path d="M -43.57564 36.69116 L -137.37696 19.27025 L -137.37696 -20.17825 L -43.57564 -2.75733 L -43.57564 36.69116 Z" />
    <path d="M -42.08241 36.47099 L -43.57564 36.69116" />
    <path d="M -18.96111 10.91491 L -22.21748 10.31013" />
    <path d="M -14.46935 42.09683 L -18.96111 41.26261 L -18.96111 1.81411 L 0.99662 5.52069 L 138.37358 -14.73577 L 63.86473 -28.57366 L 58.63843 -27.80303 L 62.62998 -27.06172 L 58.89691 -26.51127 L 64.21897 -25.52285 L 71.68511 -26.62375" />
    <path d="M 0.99662 16.36903 L 13.12909 14.58007" />
    <path d="M 0.99662 16.36903 L -9.81382 14.3613 L -13.9202 14.96679 L -9.42971 15.80077" />
    <path d="M -13.9202 16.4629 L -13.9202 14.96679" />
    <path d="M 5.03964 47.0882 L 5.03964 18.48804" />
    <path d="M -18.96111 40.76511 L -42.08241 36.47099" />
    <path d="M -134.55322 19.79468 L -134.55322 20.28338 L -14.46935 42.58554" />
    <path d="M 16.78801 43.18364 L 135.54983 25.67202" />
    <path d="M 135.54983 25.1291 L 135.54983 25.67202" />
    <path d="M 0.99662 16.36903 L 0.99662 5.52069" />
    <path d="M 138.37358 24.71273 L 138.37358 -14.73577" />
    <path d="M -17.46788 1.59393 L -18.96111 1.81411" />
    <path d="M -32.32304 16.57993 L -31.32516 16.76526 L -31.32516 -9.85808" />
    <path d="M -31.32516 16.76526 L -30.20524 16.60012 L -30.20524 -9.65009" />
    <path d="M -42.08241 13.80769 L -32.32304 12.36865" />
    <path d="M -30.20524 12.05638 L -25.74716 11.39903" />
    <path d="M -25.74716 12.95055 L -24.08402 13.25943 L -24.08402 -8.51325" />
    <path d="M -24.08402 13.25943 L -22.21748 12.98421 L -22.21748 -8.16659" />
    <path d="M -43.57564 -2.75733 L -42.08241 -2.97751 L -42.08241 36.47099" />
    <path d="M -44.79684 -33.82935 L -47.49727 -33.43116" />
    <path d="M -51.02695 -32.9107 L -137.37696 -20.17825" />
    <path d="M -38.80952 -32.71737 L -44.79684 -33.82935" />
    <path d="M -38.80952 -14.96555 L -38.80952 -32.71737" />
    <path d="M -27.11543 -12.7937 L -38.80952 -14.96555 L -40.30274 -14.74537 L -40.30274 -32.49719 L -38.80952 -32.71737" />
    <path d="M 19.06789 -21.96829 L -14.86024 -28.26948 L -16.35347 -28.0493 L -16.35347 -14.38057" />
    <path d="M 22.80096 -22.51874 L 19.06789 -21.96829" />
    <path d="M 58.63843 -5.12015 L 48.44092 -3.61651" />
    <path d="M 46.32311 -3.30423 L 32.47474 -1.26227" />
    <path d="M 30.35693 -0.94999 L 24.30266 -0.05728" />
    <path d="M 58.63843 -27.80303 L 58.63843 -13.08149" />
    <path d="M 58.63843 -5.55672 L 58.63843 -5.12015" />
    <path d="M -17.46788 1.59393 L 1.15933 5.05341 L 128.08369 -13.6618" />
    <path d="M 105.46494 -17.86259 L 128.08369 -13.6618" />
    <path d="M 112.93108 -18.96348 L 105.46494 -17.86259" />
    <path d="M 112.93108 -18.96348 L 71.68511 -26.62375" />
    <path d="M -47.02651 -3.89574 L -47.02651 -9.11952 L -68.98001 -13.19676 L -84.6589 -10.88488" />
    <path d="M -62.7054 -6.80764 L -47.02651 -9.11952" />
    <path d="M 64.21897 -4.24484 L 64.21897 -6.37958" />
    <path d="M 64.21897 -13.90435 L 64.21897 -25.52285" />
    <path d="M 58.89691 -3.82838 L 58.89691 -5.59484" />
    <path d="M 58.89691 -13.1196 L 58.89691 -26.51127" />
    <path d="M 56.23588 -4.32259 L 58.89691 -3.82838" />
    <path d="M 56.23588 -3.06772 L 56.23588 -4.32259 L 48.44092 -3.17322" />
    <path d="M 71.68511 -15.00524 L 71.68511 -26.62375" />
    <path d="M 105.46494 -10.32663 L 105.46494 -17.86259" />
    <path d="M -32.32304 16.57993 L -32.32304 -10.04341" />
    <path d="M 4.26612 4.5953 L 4.26612 -3.24802" />
    <path d="M 5.26401 4.44816 L 5.26401 -3.06269" />
    <path d="M 6.38393 4.28303 L 6.38393 -3.22662" />
    <path d="M -39.29405 5.17941 L -42.08241 5.59056" />
    <path d="M -42.08241 10.35595 L -32.32304 8.91691" />
    <path d="M -30.20524 8.60464 L -25.74716 7.94729" />
    <path d="M -25.74716 7.69536 L -30.20524 6.8674" />
    <path d="M -32.32304 6.47408 L -39.29405 5.17941" />
    <path d="M -51.02695 -9.86249 L -51.02695 -36.47076" />
    <path d="M -49.36381 -9.55361 L -49.36381 -36.16187" />
    <path d="M -47.49727 -9.20695 L -47.49727 -35.81522" />
    <path d="M -25.74716 12.95055 L -25.74716 -8.82213" />
    <path d="M -25.74716 -12.99546 L -25.74716 -33.11318" />
    <path d="M -24.08402 -13.24069 L -24.08402 -33.35842" />
    <path d="M -22.21748 -13.51591 L -22.21748 -33.63364" />
    <path d="M -14.40431 2.16291 L -14.40431 -6.71552" />
    <path d="M -13.40642 2.34823 L -13.40642 -6.53019" />
    <path d="M -12.2865 2.55623 L -12.2865 -6.3222" />
    <path d="M 22.18486 1.95316 L 22.18486 -5.5565" />
    <path d="M 23.18274 1.80602 L 23.18274 -5.70364" />
    <path d="M 24.30266 1.64088 L 24.30266 -5.86877" />
    <path d="M 31.35482 0.60103 L 31.35482 -6.73681" />
    <path d="M 32.47474 0.4359 L 32.47474 -6.52882" />
    <path d="M 30.35693 0.74817 L 30.35693 -6.92214" />
    <path d="M 48.44092 -1.91834 L 48.44092 -4.05308" />
    <path d="M 46.32311 -1.60607 L 46.32311 -3.95688" />
    <path d="M 47.321 -1.75321 L 47.321 -3.88795" />
    <path d="M 72.41858 -5.45389 L 72.41858 -7.58863" />
    <path d="M 73.53851 -5.61902 L 73.53851 -7.75376" />
    <path d="M 71.4207 -5.30675 L 71.4207 -7.44149" />
    <path d="M 88.38477 -7.80813 L 88.38477 -9.94287" />
    <path d="M 89.50469 -7.97326 L 89.50469 -10.108" />
    <path d="M 87.38688 -7.66099 L 87.38688 -9.79573" />
    <path d="M -40.30274 -32.49719 L -44.95955 -33.36206 L -47.49727 -32.98787" />
    <path d="M -51.02695 -32.46741 L -134.55322 -20.15133 L -84.6589 -10.88488" />
    <path d="M -62.7054 -6.80764 L -42.08241 -2.97751" />
    <path d="M -28.60866 -12.57353 L -40.30274 -14.74537" />
    <path d="M 24.13148 -22.27164 L 22.80096 -22.51874" />
    <path d="M 24.13148 -22.27164 L 18.90518 -21.50101 L -16.35347 -28.0493" />
    <path d="M 24.13148 -7.88298 L 24.13148 -22.27164" />
    <path d="M 58.89691 -5.07214 L 58.63843 -5.12015" />
    <path d="M 46.32311 -2.86094 L 32.47474 -0.81898" />
    <path d="M 30.35693 -0.5067 L 24.30266 0.38601" />
    <path d="M 92.14178 -11.48306 L 72.51668 -15.12786 L 27.34654 -8.46745 L 46.97163 -4.82265 L 92.14178 -11.48306 L 92.14178 -10.49685" />
    <path d="M 18.90518 2.43675 L 18.90518 -5.0729" />
    <path d="M 18.90518 -8.85362 L 18.90518 -21.50101" />
    <path d="M -35.3131 -10.59873 L 5.26761 -3.06202 L 5.26761 -4.04823 L 27.29272 -7.29587 L -13.28799 -14.83258 L -35.3131 -11.58494 L 5.26761 -4.04823" />
    <path d="M 5.26761 -3.06202 L 27.29272 -6.30966 L 27.29272 -7.29587" />
    <path d="M -61.02848 -38.32825 L -29.76138 -32.52128 L -29.76138 -33.01439 L -12.21595 -35.60149 L -43.48306 -41.40846 L -61.02848 -38.82136 L -29.76138 -33.01439" />
    <path d="M -29.76138 -32.52128 L -12.21595 -35.10838 L -12.21595 -35.60149" />
    <path d="M 27.34654 -7.48124 L 46.97163 -3.83643 L 46.97163 -4.82265" />
    <path d="M 46.97163 -3.83643 L 92.14178 -10.49685" />
    <path d="M -44.95955 -3.51186 L -44.95955 -33.36206" />
    <path d="M 27.34654 -7.48124 L 27.34654 -8.46745" />
    <path d="M -35.3131 -10.59873 L -35.3131 -11.58494" />
    <path d="M -61.02848 -38.32825 L -61.02848 -38.82136" />
</svg>