<svg version="1.1" xmlns="http://www.w3.org/2000/svg" viewBox="-138.81536849981148 -27.39827520846586 277.63073699962297 58.89371599812768" fill="none" stroke="black" stroke-width="0.6%" vector-effect="non-scaling-stroke">
    <path d="M 0.17285 29.79785 L 0.17285 30.49544 L 134.99223 17.26434" />
    <path d="M -19.87722 26.98712 L -42.89446 24.10051 L -44.39245 24.24753 L -137.81537 12.53129 L -137.81537 -17.28352 L -44.39245 -5.56729 L -44.39245 24.24753" />
    <path d="M -134.99223 12.88535 L -134.99223 13.5443 L 0.17285 30.49544" />
    <path d="M 134.99223 16.56675 L 134.99223 17.26434" />
    <path d="M -19.87722 6.89453 L -20.64782 6.79789" />
    <path d="M -22.76517 6.53235 L -39.11346 4.4821" />
    <path d="M -41.23082 4.21656 L -42.89446 4.00792" />
    <path d="M -22.76517 12.01595 L -21.77131 12.14059 L -20.64782 12.03033 L -20.64782 -14.96664" />
    <path d="M -41.23082 5.68164 L -40.23696 5.80629 L -39.11346 5.69603 L -39.11346 -17.02967" />
    <path d="M 0 29.81481 L -19.87722 27.322 L -19.87722 -2.49282 L 0 0 L 137.81537 -13.52512 L 63.60709 -22.83163 L 58.36412 -22.31709 L 62.33956 -21.81853 L 58.59458 -21.45099 L 63.89517 -20.78624 L 71.38513 -21.5213" />
    <path d="M 137.81537 16.28969 L 0 29.81481 L 0 0" />
    <path d="M -47.70532 -6.31763 L -47.70532 -9.83384 L -69.57026 -12.57593 L -85.29919 -11.03231" />
    <path d="M -63.43425 -8.29021 L -47.70532 -9.83384" />
    <path d="M 104.97475 -10.5984 L 104.97475 -15.63443 L 127.50226 -12.80924" />
    <path d="M 112.46471 -16.36949 L 104.97475 -15.63443" />
    <path d="M 63.89517 -6.56687 L 63.89517 -20.78624" />
    <path d="M 71.38513 -7.30193 L 71.38513 -21.5213" />
    <path d="M 58.59458 -8.53124 L 58.59458 -21.45099" />
    <path d="M 55.94428 -8.86362 L 58.59458 -8.53124" />
    <path d="M 55.94428 -5.78658 L 55.94428 -8.86362 L 23.73743 -5.70286 L 23.73743 -18.62261 L 22.41228 -18.7888 L 18.6673 -18.42127 L -15.12397 -22.65905 L -16.62196 -22.51204 L -16.62196 -20.14225" />
    <path d="M -59.20674 -11.27624 L -59.20674 -19.54958" />
    <path d="M -58.21288 -11.1516 L -58.21288 -19.42494" />
    <path d="M -57.08938 -11.0107 L -57.08938 -19.28404" />
    <path d="M -22.76517 12.01595 L -22.76517 -14.97942" />
    <path d="M -21.77131 12.14059 L -21.77131 -14.85639" />
    <path d="M -41.23082 5.68164 L -41.23082 -17.29521" />
    <path d="M -40.23696 5.80629 L -40.23696 -17.17056" />
    <path d="M -4.78926 -0.9355 L -4.78926 -16.52299" />
    <path d="M -3.7954 -0.81086 L -3.7954 -16.62053" />
    <path d="M -2.6719 -0.66996 L -2.6719 -16.73079" />
    <path d="M -44.39245 -5.56729 L -42.89446 -5.7143 L -42.89446 24.10051" />
    <path d="M -44.93979 -26.39827 L -137.81537 -17.28352" />
    <path d="M -38.97663 -25.65043 L -44.93979 -26.39827" />
    <path d="M -38.97663 -22.94576 L -38.97663 -25.65043" />
    <path d="M -16.62196 -14.8963 L -18.70401 -15.15741" />
    <path d="M 58.36412 -9.39734 L 23.73743 -5.99909" />
    <path d="M 58.36412 -22.31709 L 58.36412 -9.39734" />
    <path d="M -18.37922 -2.63983 L -19.87722 -2.49282" />
    <path d="M 137.81537 16.28969 L 137.81537 -13.52512" />
    <path d="M -63.43425 -8.29021 L -42.89446 -5.7143" />
    <path d="M -40.47462 -25.50342 L -38.97663 -25.65043" />
    <path d="M -40.47462 -25.50342 L -45.11264 -26.08507 L -134.99223 -17.26434 L -85.29919 -11.03231" />
    <path d="M 0.17285 -0.3132 L 127.50226 -12.80924" />
    <path d="M -18.37922 -2.63983 L 0.17285 -0.3132" />
    <path d="M 112.46471 -16.36949 L 71.38513 -21.5213" />
    <path d="M 58.59458 -9.36843 L 58.36412 -9.39734" />
    <path d="M 18.49445 -2.11127 L 18.49445 -18.10807 L -16.62196 -22.51204" />
    <path d="M 23.73743 -18.62261 L 18.49445 -18.10807" />
    <path d="M -62.19552 -19.9244 L -21.77852 -14.85568 L -21.77852 -15.84951 L 0.31688 -18.01794 L -40.10012 -23.08666 L -62.19552 -20.91823 L -21.77852 -15.84951" />
    <path d="M -21.77852 -14.85568 L 0.31688 -17.02411 L 0.31688 -18.01794" />
    <path d="M -40.47462 -23.04991 L -40.47462 -25.50342" />
    <path d="M -16.62196 -14.56142 L -20.202 -15.0104" />
    <path d="M -16.62196 -15.36174 L -16.62196 -14.56142" />
    <path d="M -45.11264 -5.99248 L -45.11264 -17.78203" />
    <path d="M -45.11264 -22.59473 L -45.11264 -26.08507" />
    <path d="M -62.19552 -19.9244 L -62.19552 -20.91823" />
</svg>