<svg version="1.1" xmlns="http://www.w3.org/2000/svg" viewBox="-133.25066030212645 -25.243393604532763 278.8657613280146 72.76699823439986" fill="none" stroke="black" stroke-width="0.6%" vector-effect="non-scaling-stroke">
    <path d="M -8.49351 37.76874 L -32.7808 33.92234 L -34.21831 34.13536 L -132.25066 18.60989 L -132.25066 -11.03598 L -34.21831 4.48948 L -34.21831 34.13536" />
    <path d="M -129.42262 19.05777 L -129.42262 19.60529 L -9.56843 38.5867" />
    <path d="M 27.38897 39.84816 L 141.78706 22.89562" />
    <path d="M 141.78706 22.33371 L 141.78706 22.89562" />
    <path d="M -23.81282 44.15624 L -8.86463 46.5236 L 23.85393 41.67507" />
    <path d="M 144.6151 21.91462 L 27.38897 39.28624" />
    <path d="M -8.49351 11.32782 L -15.40035 10.23398" />
    <path d="M -17.52138 9.89807 L -32.7808 7.48142" />
    <path d="M -7.78244 38.32203 L -8.49351 38.20942 L -8.49351 8.56354 L 12.36444 11.86683 L 23.85393 10.16422" />
    <path d="M -17.52138 17.11424 L -16.47848 17.2794 L -15.40035 17.11963 L -15.40035 -9.57619" />
    <path d="M -23.81282 44.15624 L -23.81282 40.69756 L -8.86463 43.06492 L 23.85393 38.21639" />
    <path d="M 3.49981 36.65013 L -23.81282 40.69756" />
    <path d="M -8.86463 46.5236 L -8.86463 43.06492" />
    <path d="M 23.85393 38.1109 L 18.11447 37.20194" />
    <path d="M 12.36444 38.05403 L 18.11447 37.20194" />
    <path d="M 144.6151 21.91462 L 144.6151 -7.73125 L 66.74543 -20.06354 L 61.71416 -19.31796 L 65.88575 -18.6573 L 62.29198 -18.12475 L 67.8541 -17.24387 L 75.04163 -18.30898" />
    <path d="M 27.38897 9.64036 L 144.6151 -7.73125" />
    <path d="M 12.36444 38.05403 L 12.36444 11.86683" />
    <path d="M 27.21398 -14.20542 L 23.62022 -13.67286 L -11.83829 -19.28846 L -13.2758 -19.07543 L -13.2758 -16.43635" />
    <path d="M 61.71416 -6.47142 L 28.60451 -1.56493" />
    <path d="M 61.71416 -19.31796 L 61.71416 -6.47142" />
    <path d="M -36.86783 -23.25241 L -43.12521 -24.24339 L -132.25066 -11.03598" />
    <path d="M -36.86783 -20.17264 L -36.86783 -23.25241" />
    <path d="M -34.21831 4.48948 L -32.7808 4.27646 L -32.7808 33.92234" />
    <path d="M -7.056 8.35052 L -8.49351 8.56354" />
    <path d="M 3.49981 36.65013 L 12.36444 38.05403" />
    <path d="M 110.96052 -3.1703 L 110.96052 -10.41707 L 134.59953 -6.67334" />
    <path d="M 118.14806 -11.48218 L 110.96052 -10.41707" />
    <path d="M 0.07047 9.47915 L -0.82798 9.61228 L -2.56614 9.33701 L -2.56614 -6.13694" />
    <path d="M 0.96891 9.62143 L 0.96891 -5.57709" />
    <path d="M -0.82798 9.61228 L -0.82798 -5.86166" />
    <path d="M 67.8541 3.2176 L 67.8541 -17.24387" />
    <path d="M 75.04163 2.15249 L 75.04163 -18.30898" />
    <path d="M 62.29198 -5.2782 L 62.29198 -18.12475" />
    <path d="M 59.51092 -5.71864 L 62.29198 -5.2782" />
    <path d="M 59.51092 4.45397 L 59.51092 -5.71864 L 28.60451 -1.13865 L 28.60451 -3.74478" />
    <path d="M -39.24019 3.25348 L -39.24019 -1.37368 L -62.18393 -5.0073 L -77.27775 -2.77056" />
    <path d="M -54.33401 0.86306 L -39.24019 -1.37368" />
    <path d="M -55.76095 -3.99009 L -55.76095 -15.6765" />
    <path d="M -54.71805 -3.82492 L -54.71805 -15.51134" />
    <path d="M -53.63992 -3.65418 L -53.63992 -15.34059" />
    <path d="M -17.52138 17.11424 L -17.52138 -9.62047" />
    <path d="M -16.47848 17.2794 L -16.47848 -9.45531" />
    <path d="M -38.51086 3.36899 L -38.51086 -12.94459" />
    <path d="M -37.46797 3.53415 L -37.46797 -12.77943" />
    <path d="M -36.38984 3.7049 L -36.38984 -12.60868" />
    <path d="M -0.27129 -9.97739 L -0.27129 -11.81815" />
    <path d="M 0.7716 -10.13194 L 0.7716 -11.97269" />
    <path d="M 1.84973 9.76093 L 1.84973 -5.43759" />
    <path d="M 1.84973 -10.2917 L 1.84973 -12.13246" />
    <path d="M -7.056 8.35052 L -2.56614 9.06158" />
    <path d="M 0.07047 9.47915 L 12.41142 11.43359 L 23.85393 9.73794" />
    <path d="M 27.38897 9.21408 L 134.59953 -6.67334" />
    <path d="M 118.14806 -11.48218 L 75.04163 -18.30898" />
    <path d="M 28.60451 -13.9852 L 27.21398 -14.20542" />
    <path d="M 28.60451 -13.9852 L 23.57324 -13.23962 L -13.2758 -19.07543" />
    <path d="M 28.60451 -6.87252 L 28.60451 -13.9852" />
    <path d="M 62.29198 -6.37991 L 61.71416 -6.47142" />
    <path d="M -38.30534 -23.03938 L -36.86783 -23.25241" />
    <path d="M -38.30534 -23.03938 L -43.17219 -23.81015 L -129.42262 -11.02879 L -77.27775 -2.77056" />
    <path d="M -54.33401 0.86306 L -32.7808 4.27646" />
    <path d="M -38.30534 -20.17168 L -38.30534 -23.03938" />
    <path d="M -12.37266 -7.69 L 20.30479 -2.51485 L 20.30479 -3.00895 L 37.1955 -5.51196 L 4.51805 -10.68712 L -12.37266 -8.1841 L 20.30479 -3.00895" />
    <path d="M 20.30479 -2.51485 L 37.1955 -5.01786 L 37.1955 -5.51196" />
    <path d="M 23.57324 9.77953 L 23.57324 -2.9992" />
    <path d="M 23.57324 -7.66933 L 23.57324 -13.23962" />
    <path d="M -58.7628 -16.15191 L -16.35164 -9.43522 L -16.35164 -10.42341 L 4.85159 -13.5655 L -37.55957 -20.28219 L -58.7628 -17.14011 L -16.35164 -10.42341" />
    <path d="M -16.35164 -9.43522 L 4.85159 -12.5773 L 4.85159 -13.5655" />
    <path d="M -43.17219 -1.99639 L -43.17219 -13.68281" />
    <path d="M -43.17219 -19.45046 L -43.17219 -23.81015" />
    <path d="M -12.37266 -7.69 L -12.37266 -8.1841" />
    <path d="M 23.85393 43.16706 L 23.85393 -3.04079" />
    <path d="M 25.59209 43.44233 L 25.59209 -3.29837" />
    <path d="M 23.85393 43.16706 L 25.59209 43.44233 L 27.38897 43.17605 L 27.38897 -3.56465" />
    <path d="M -58.7628 -16.15191 L -58.7628 -17.14011" />
</svg>