<svg version="1.1" xmlns="http://www.w3.org/2000/svg" viewBox="-138.81536849981148 -41.90269705213881 277.63073699962297 91.13919128824458" fill="none" stroke="black" stroke-width="0.6%" vector-effect="non-scaling-stroke">
    <path d="M 0.17285 47.72059 L 0.17285 48.23649 L 134.99223 27.30806" />
    <path d="M -19.87722 43.27469 L -42.89446 38.70876 L -44.39245 38.9413 L -137.81537 20.40902 L -137.81537 -18.97029 L -44.39245 -0.43801 L -44.39245 38.9413" />
    <path d="M -134.99223 20.96905 L -134.99223 21.42384 L 0.17285 48.23649" />
    <path d="M 134.99223 26.79216 L 134.99223 27.30806" />
    <path d="M -19.87722 11.49301 L -22.52031 10.9687" />
    <path d="M -32.70378 17.62236 L -31.70992 17.81951 L -30.58643 17.64511 L -30.58643 -8.50121" />
    <path d="M -42.89446 14.75282 L -32.70378 13.17089" />
    <path d="M -30.58643 12.8422 L -26.04924 12.13788" />
    <path d="M -26.04924 13.7779 L -24.3928 14.10648 L -22.52031 13.81581 L -22.52031 -6.90113" />
    <path d="M 0 47.74742 L -19.87722 43.80438 L -19.87722 4.42507 L 0 8.3681 L 137.81537 -13.0254 L 63.60709 -27.74608 L 58.36412 -26.93219 L 62.33956 -26.14359 L 58.59458 -25.56224 L 63.89517 -24.51076 L 71.38513 -25.67345" />
    <path d="M 137.81537 26.35391 L 0 47.74742 L 0 8.3681" />
    <path d="M -47.70532 -1.62488 L -47.70532 -7.18667 L -69.57026 -11.52401 L -85.29919 -9.08236" />
    <path d="M -63.43425 -4.74502 L -47.70532 -7.18667" />
    <path d="M 104.97475 -8.39603 L 104.97475 -16.36182 L 127.50226 -11.89304" />
    <path d="M 112.46471 -17.52451 L 104.97475 -16.36182" />
    <path d="M 63.89517 -2.01912 L 63.89517 -5.00037" />
    <path d="M 63.89517 -12.89635 L 63.89517 -24.51076" />
    <path d="M 71.38513 -14.05904 L 71.38513 -25.67345" />
    <path d="M 58.59458 -2.91913 L 58.59458 -4.17755" />
    <path d="M 58.59458 -12.07352 L 58.59458 -25.56224" />
    <path d="M 55.94428 -3.44487 L 58.59458 -2.91913" />
    <path d="M 55.94428 -0.78488 L 55.94428 -3.44487 L 47.92858 -2.20057" />
    <path d="M -32.70378 17.62236 L -32.70378 -8.92123" />
    <path d="M -31.70992 17.81951 L -31.70992 -8.72407" />
    <path d="M 3.73778 7.3193 L 3.73778 -1.69232" />
    <path d="M 4.73164 7.16502 L 4.73164 -1.49772" />
    <path d="M 5.85514 6.99062 L 5.85514 -1.67212" />
    <path d="M -39.50237 5.74337 L -42.89446 6.26993" />
    <path d="M -42.89446 11.30713 L -32.70378 9.7252" />
    <path d="M -30.58643 9.39651 L -26.04924 8.69219" />
    <path d="M -26.04924 8.41206 L -30.58643 7.51202" />
    <path d="M -32.70378 7.092 L -39.50237 5.74337" />
    <path d="M -51.22704 -7.88528 L -51.22704 -35.6909" />
    <path d="M -49.57061 -7.55669 L -49.57061 -35.36231" />
    <path d="M -47.69812 -1.62345 L -47.69812 -34.99087" />
    <path d="M -26.04924 13.7779 L -26.04924 -7.60117" />
    <path d="M -26.04924 -11.99556 L -26.04924 -32.13012" />
    <path d="M -24.3928 14.10648 L -24.3928 -7.27258" />
    <path d="M -24.3928 -12.25269 L -24.3928 -32.38726" />
    <path d="M -22.52031 -12.54336 L -22.52031 -32.67793" />
    <path d="M -14.72787 4.91685 L -14.72787 -5.35535" />
    <path d="M -13.734 5.114 L -13.734 -5.1582" />
    <path d="M -12.61051 5.33687 L -12.61051 -4.93533" />
    <path d="M 21.7137 4.52884 L 21.7137 -4.1339" />
    <path d="M 22.70756 4.37456 L 22.70756 -4.28818" />
    <path d="M 23.83105 4.20016 L 23.83105 -4.46258" />
    <path d="M 30.90331 3.10231 L 30.90331 -5.37453" />
    <path d="M 32.0268 2.92791 L 32.0268 -5.15166" />
    <path d="M 29.90945 3.25659 L 29.90945 -5.57168" />
    <path d="M 46.80508 0.63383 L 46.80508 -2.34743" />
    <path d="M 45.81122 0.78811 L 45.81122 -2.41725" />
    <path d="M 47.92858 0.45943 L 47.92858 -2.52183" />
    <path d="M 72.09812 -3.29249 L 72.09812 -6.27374" />
    <path d="M 73.22162 -3.46689 L 73.22162 -6.44815" />
    <path d="M 71.10426 -3.13821 L 71.10426 -6.11946" />
    <path d="M 87.99989 -5.76097 L 87.99989 -8.74222" />
    <path d="M 89.12339 -5.93537 L 89.12339 -8.91663" />
    <path d="M 87.00603 -5.60669 L 87.00603 -8.58794" />
    <path d="M -18.37922 4.19253 L -19.87722 4.42507" />
    <path d="M -44.39245 -0.43801 L -42.89446 -0.67055 L -42.89446 38.70876" />
    <path d="M -44.93979 -33.38765 L -47.69812 -32.95947" />
    <path d="M -51.22704 -32.41166 L -137.81537 -18.97029" />
    <path d="M -38.97663 -32.20474 L -44.93979 -33.38765" />
    <path d="M -38.97663 -14.48405 L -38.97663 -32.20474" />
    <path d="M -26.26391 -11.96223 L -38.97663 -14.48405 L -40.47462 -14.25151 L -40.47462 -31.9722 L -38.97663 -32.20474" />
    <path d="M 18.6673 -20.76993 L -15.12397 -27.4731 L -16.62196 -27.24056 L -16.62196 -13.45898" />
    <path d="M 22.41228 -21.35128 L 18.6673 -20.76993" />
    <path d="M 45.81122 -2.34046 L 32.0268 -0.20066" />
    <path d="M 29.90945 0.12802 L 23.83105 1.07159" />
    <path d="M 58.36412 -26.93219 L 58.36412 -12.03775" />
    <path d="M 137.81537 26.35391 L 137.81537 -13.0254" />
    <path d="M -63.43425 -4.74502 L -42.89446 -0.67055" />
    <path d="M -40.47462 -31.9722 L -45.11264 -32.89225 L -47.69812 -32.49089" />
    <path d="M -51.22704 -31.94309 L -134.99223 -18.93996 L -85.29919 -9.08236" />
    <path d="M 0.17285 7.8727 L 127.50226 -11.89304" />
    <path d="M -18.37922 4.19253 L 0.17285 7.8727" />
    <path d="M 112.46471 -17.52451 L 71.38513 -25.67345" />
    <path d="M 91.75928 -10.31029 L 72.21335 -14.18761 L 26.89906 -7.15333 L 46.44499 -3.27601 L 91.75928 -10.31029 L 91.75928 -9.3258" />
    <path d="M 45.81122 -1.87189 L 32.0268 0.26791" />
    <path d="M 29.90945 0.59659 L 23.83105 1.54016" />
    <path d="M 18.49445 5.02858 L 18.49445 -3.63416" />
    <path d="M 18.49445 -7.56252 L 18.49445 -20.27453 L -16.62196 -27.24056" />
    <path d="M 23.73743 -21.08841 L 18.49445 -20.27453" />
    <path d="M 23.73743 -6.52248 L 23.73743 -21.08841 L 22.41228 -21.35128" />
    <path d="M -35.69257 -9.51411 L 4.72444 -1.4966 L 4.72444 -2.48108 L 26.81984 -5.91102 L -13.59717 -13.92853 L -35.69257 -10.49859 L 4.72444 -2.48108" />
    <path d="M 4.72444 -1.4966 L 26.81984 -4.92654 L 26.81984 -5.91102" />
    <path d="M -61.24487 -37.67813 L -30.1039 -31.50071 L -30.1039 -31.99295 L -12.50248 -34.72527 L -43.64345 -40.9027 L -61.24487 -38.17037 L -30.1039 -31.99295" />
    <path d="M -30.1039 -31.50071 L -12.50248 -34.23303 L -12.50248 -34.72527" />
    <path d="M 26.89906 -6.16885 L 46.44499 -2.29153 L 46.44499 -3.27601" />
    <path d="M 46.44499 -2.29153 L 91.75928 -9.3258" />
    <path d="M -27.7619 -11.72969 L -40.47462 -14.25151" />
    <path d="M -45.11264 -1.11057 L -45.11264 -32.89225" />
    <path d="M 26.89906 -6.16885 L 26.89906 -7.15333" />
    <path d="M -35.69257 -9.51411 L -35.69257 -10.49859" />
    <path d="M -61.24487 -37.67813 L -61.24487 -38.17037" />
</svg>