<svg version="1.1" xmlns="http://www.w3.org/2000/svg" viewBox="-138.37696282421763 -40.00909584725265 277.750540826783 100.95932975585652" fill="none" stroke="black" stroke-width="0.6%" vector-effect="non-scaling-stroke">
    <path d="M -14.46935 57.48626 L -14.46935 29.13123 L -4.49049 31.48003 L 0.54916 30.53825 L 5.03964 31.59521 L 16.23885 29.50235 L 11.74836 28.44539 L 16.78801 27.5036 L 13.12909 26.64238" />
    <path d="M -4.49049 59.83506 L -4.49049 31.48003" />
    <path d="M -14.46935 57.48626 L -4.49049 59.83506 L 0.54916 58.89327 L 5.03964 59.95023 L 16.23885 57.85737 L 16.23885 29.50235" />
    <path d="M -9.42971 28.18945 L -14.46935 29.13123" />
    <path d="M 0.54916 58.89327 L 0.54916 30.53825" />
    <path d="M 16.23885 55.96125 L 16.78801 55.85863 L 16.78801 27.5036" />
    <path d="M 138.37358 31.59227 L 16.78801 54.31364" />
    <path d="M -43.57564 46.77336 L -137.37696 24.69464 L -137.37696 -14.41575 L -43.57564 7.66298 L -43.57564 46.77336 Z" />
    <path d="M -42.08241 46.49431 L -43.57564 46.77336" />
    <path d="M -18.96111 14.10534 L -22.21748 13.33887" />
    <path d="M -14.46935 53.62432 L -18.96111 52.56706 L -18.96111 13.45668 L 0.99662 18.15428 L 138.37358 -7.51811 L 107.36351 -14.81718" />
    <path d="M 0.99662 28.90964 L 13.12909 26.64238" />
    <path d="M 0.99662 28.90964 L -9.81382 26.3651 L -13.9202 27.13249 L -9.42971 28.18945" />
    <path d="M -13.9202 29.02861 L -13.9202 27.13249" />
    <path d="M 5.03964 59.95023 L 5.03964 31.59521" />
    <path d="M -18.96111 51.93654 L -42.08241 46.49431" />
    <path d="M -134.55322 25.35928 L -134.55322 25.70652 L -14.46935 53.97156" />
    <path d="M 16.78801 54.72958 L 135.54983 32.5359" />
    <path d="M 135.54983 32.11996 L 135.54983 32.5359" />
    <path d="M 0.99662 28.90964 L 0.99662 18.15428" />
    <path d="M 138.37358 31.59227 L 138.37358 -7.51811" />
    <path d="M -17.46788 13.17764 L -18.96111 13.45668" />
    <path d="M -42.08241 17.77156 L -31.91626 15.87176" />
    <path d="M -29.79845 15.47599 L -25.74716 14.7189" />
    <path d="M -25.74716 16.68525 L -24.08402 17.07672 L -24.08402 -4.60988" />
    <path d="M -24.08402 17.07672 L -22.21748 16.72791 L -22.21748 -4.17054" />
    <path d="M -31.91626 19.80446 L -30.91838 20.03934 L -30.91838 -6.21853" />
    <path d="M -30.91838 20.03934 L -29.79845 19.83005 L -29.79845 -5.95493" />
    <path d="M -43.57564 7.66298 L -42.08241 7.38393 L -42.08241 46.49431" />
    <path d="M -45.49753 -31.58577 L -47.49727 -31.21206" />
    <path d="M -51.02695 -30.55245 L -137.37696 -14.41575" />
    <path d="M -38.80952 -12.70776 L -38.80952 -30.01156" />
    <path d="M -26.25258 -9.75213 L -38.80952 -12.70776 L -40.30274 -12.42871 L -40.30274 -30.02838 L -39.51021 -30.17649" />
    <path d="M 19.06789 -16.68439 L -14.86024 -24.67031 L -16.35347 -24.39126 L -16.35347 -11.60204" />
    <path d="M 22.80096 -17.38201 L 19.06789 -16.68439" />
    <path d="M 58.63843 -24.07915 L 58.63843 -16.10083" />
    <path d="M 58.63843 -12.77242 L 58.63843 -11.92197" />
    <path d="M 63.86473 -25.05582 L 58.63843 -24.07915 L 62.62998 -23.13963 L 58.89691 -22.44201 L 64.21897 -21.18932 L 71.68511 -22.58456" />
    <path d="M 103.87578 -15.63812 L 90.64187 -18.75308" />
    <path d="M 82.75938 -20.60844 L 63.86473 -25.05582" />
    <path d="M -17.46788 13.17764 L 1.15933 17.56206 L 128.08369 -6.157" />
    <path d="M 106.42665 -11.25458 L 128.08369 -6.157" />
    <path d="M 112.93108 -12.87618 L 106.53896 -11.68165" />
    <path d="M 112.93108 -12.87618 L 107.20737 -14.22342" />
    <path d="M 103.71964 -15.04435 L 96.55387 -16.73101" />
    <path d="M 95.79051 -16.91069 L 89.14864 -18.47403" />
    <path d="M 81.26615 -20.3294 L 71.68511 -22.58456" />
    <path d="M -47.02651 6.2202 L -47.02651 -0.40026 L -68.98001 -5.56762 L -84.6589 -2.63762" />
    <path d="M -62.7054 2.52974 L -47.02651 -0.40026" />
    <path d="M 105.46494 -1.93011 L 105.46494 -7.59746" />
    <path d="M -51.02695 -1.34187 L -51.02695 -32.88727" />
    <path d="M -49.36381 -0.95041 L -49.36381 -32.4958" />
    <path d="M -47.49727 -0.51107 L -47.49727 -32.05646" />
    <path d="M -39.29405 7.78883 L -42.08241 8.3099" />
    <path d="M -42.08241 14.3494 L -31.91626 12.4496" />
    <path d="M -29.79845 12.05383 L -25.74716 11.29675" />
    <path d="M -25.74716 10.97746 L -29.79845 10.02388" />
    <path d="M -31.91626 9.52539 L -39.29405 7.78883" />
    <path d="M -25.74716 16.68525 L -25.74716 -5.00134" />
    <path d="M -25.74716 -9.84658 L -25.74716 -28.63199" />
    <path d="M -24.08402 -10.15739 L -24.08402 -28.94279" />
    <path d="M -22.21748 -10.5062 L -22.21748 -29.2916" />
    <path d="M -31.91626 19.80446 L -31.91626 -6.45341" />
    <path d="M -13.99753 13.99448 L -13.99753 -2.23574" />
    <path d="M -12.99964 14.22936 L -12.99964 -2.00086" />
    <path d="M -11.87972 14.49296 L -11.87972 -1.73726" />
    <path d="M 4.6729 16.90546 L 4.6729 2.15886" />
    <path d="M 5.67079 16.71898 L 5.67079 2.39374" />
    <path d="M 6.79071 16.50969 L 6.79071 2.18597" />
    <path d="M 22.37384 4.64951 L 22.37384 -0.72613" />
    <path d="M 22.59164 3.82128 L 22.59164 -0.76684" />
    <path d="M 23.58953 0.0266 L 23.58953 -0.95332" />
    <path d="M -40.30274 -30.02838 L -44.95955 -31.12449 L -47.49727 -30.65025" />
    <path d="M -51.02695 -29.99064 L -134.55322 -14.38162 L -84.6589 -2.63762" />
    <path d="M -62.7054 2.52974 L -42.08241 7.38393" />
    <path d="M -27.74581 -9.47309 L -40.30274 -12.42871" />
    <path d="M 24.13148 -17.06883 L 22.80096 -17.38201" />
    <path d="M 24.13148 -17.06883 L 18.90518 -16.09217 L -16.35347 -24.39126" />
    <path d="M 24.13148 -5.47346 L 24.13148 -6.32392" />
    <path d="M 24.13148 -9.65232 L 24.13148 -17.06883" />
    <path d="M 71.68511 -12.40598 L 71.68511 -15.21053" />
    <path d="M 71.68511 -18.53893 L 71.68511 -22.58456" />
    <path d="M 64.21897 -17.14369 L 64.21897 -21.18932" />
    <path d="M 58.89691 -11.19778 L 58.89691 -12.82072" />
    <path d="M 58.89691 -16.14913 L 58.89691 -22.44201" />
    <path d="M 58.89691 -11.19778 L 60.54993 -10.80869" />
    <path d="M -34.90632 -7.1572 L 5.67439 2.39458 L 5.67439 1.41683 L 15.77552 -0.47083" />
    <path d="M 5.67439 2.39458 L 15.50511 0.55746" />
    <path d="M 19.40013 -0.17042 L 23.86053 -1.00396" />
    <path d="M 18.90518 14.2458 L 18.90518 1.71175" />
    <path d="M 18.90518 -8.67565 L 18.90518 -16.09217" />
    <path d="M -61.02848 -35.2414 L -29.76138 -27.88183 L -29.76138 -28.37071 L -12.21595 -31.64952 L -43.48306 -39.00909 L -61.02848 -35.73028 L -29.76138 -28.37071" />
    <path d="M -29.76138 -27.88183 L -12.21595 -31.16064 L -12.21595 -31.64952" />
    <path d="M -44.95955 6.70672 L -44.95955 -31.12449" />
    <path d="M 58.89691 -11.97027 L 42.73692 -8.95037" />
    <path d="M 38.84191 -8.22248 L 20.62222 -4.81767" />
    <path d="M 17.02238 -5.21228 L -12.88121 -12.25092 L -34.90632 -8.13496 L 5.67439 1.41683" />
    <path d="M 19.67054 -1.19871 L 24.13094 -2.03225" />
    <path d="M -34.90632 -7.1572 L -34.90632 -8.13496" />
    <path d="M -61.02848 -35.2414 L -61.02848 -35.73028" />
    <path d="M 96.68598 -16.62924 L 92.16706 0.55494" />
    <path d="M 86.30179 -14.68869 L 96.68598 -16.62924 L 96.21713 -16.99041" />
    <path d="M 87.20071 -18.10702 L 87.19758 -18.10943 L 86.07766 -17.90014 L 86.08079 -17.89773 L 87.20071 -18.10702 Z" />
    <path d="M 81.78286 2.49549 L 87.20071 -18.10702" />
    <path d="M 80.66294 2.70478 L 86.08079 -17.89773" />
    <path d="M 82.4076 -13.96395 L 83.30652 -17.38228" />
    <path d="M 82.41072 -13.96155 L 82.4076 -13.96395" />
    <path d="M 77.8918 3.22264 L 82.41072 -13.96155" />
    <path d="M 64.18709 -10.55599 L 82.41072 -13.96155" />
    <path d="M 65.086 -13.97432 L 65.08288 -13.97673 L 63.96296 -13.76745 L 63.96608 -13.76504 L 65.086 -13.97432 Z" />
    <path d="M 59.66816 6.62819 L 65.086 -13.97432" />
    <path d="M 58.54824 6.83748 L 63.96608 -13.76504" />
    <path d="M 60.29289 -9.83126 L 61.19181 -13.24959" />
    <path d="M 60.29602 -9.82885 L 60.29289 -9.83126" />
    <path d="M 55.7771 7.35534 L 60.29602 -9.82885" />
    <path d="M 42.07238 -6.4233 L 60.29602 -9.82885" />
    <path d="M 42.9713 -9.84163 L 42.96817 -9.84403 L 41.84825 -9.63475 L 41.85138 -9.63234 L 42.9713 -9.84163 Z" />
    <path d="M 37.55346 10.76089 L 42.9713 -9.84163" />
    <path d="M 36.43354 10.97018 L 41.85138 -9.63234" />
    <path d="M 38.17819 -5.69856 L 39.07711 -9.11689" />
    <path d="M 38.18132 -5.69615 L 38.17819 -5.69856" />
    <path d="M 33.66239 11.48803 L 38.18132 -5.69615" />
    <path d="M 25.01105 -3.23495 L 38.18132 -5.69615" />
    <path d="M 20.49212 13.94924 L 25.01105 -3.23495 L 24.54219 -3.59612 L 38.30148 -6.16739" />
    <path d="M 19.89915 14.06005 L 24.54219 -3.59612" />
    <path d="M 42.1965 -6.89528 L 60.41618 -10.30009" />
    <path d="M 64.3112 -11.02797 L 82.53089 -14.43279" />
    <path d="M 86.42591 -15.16067 L 96.21713 -16.99041" />
    <path d="M 108.19237 -22.03284 L 87.19758 -18.10943" />
    <path d="M 86.07766 -17.90014 L 65.08288 -13.97673" />
    <path d="M 63.96296 -13.76745 L 42.96817 -9.84403" />
    <path d="M 41.84825 -9.63475 L 20.85347 -5.71134 L 19.73355 -5.50205 L 19.73667 -5.49964 L 20.85659 -5.70893 L 20.85347 -5.71134" />
    <path d="M 100.00255 -0.90932 L 105.42122 -21.51498" />
    <path d="M 102.77765 -1.42792 L 108.19549 -22.03043 L 109.31541 -22.23972 L 109.31229 -22.24213 L 108.19237 -22.03284 L 108.19549 -22.03043" />
    <path d="M 107.4656 -25.22543 L 17.87193 -8.48256 L 17.53063 -7.18471 L 19.71862 -5.49926 L 20.05991 -6.79712 L 17.87193 -8.48256" />
    <path d="M 19.73355 -5.50205 L 19.71862 -5.49926" />
    <path d="M 109.65358 -23.53998 L 20.05991 -6.79712" />
    <path d="M 109.31229 -22.24213 L 109.65358 -23.53998 L 107.4656 -25.22543" />
    <path d="M 15.43875 14.89359 L 20.85659 -5.70893" />
    <path d="M 103.89757 -1.6372 L 109.31541 -22.23972" />
    <path d="M 14.31883 15.10287 L 19.73667 -5.49964" />
    <path d="M 11.54373 15.62147 L 17.53931 -7.17802" />
</svg>