<svg version="1.1" xmlns="http://www.w3.org/2000/svg" viewBox="-140.4794626233138 -40.0009749192048 277.1386073653706 101.85173128106436" fill="none" stroke="black" stroke-width="0.6%" vector-effect="non-scaling-stroke">
    <path d="M -23.38654 52.61968 L -46.00213 47.02628 L -47.51822 47.30385 L -139.47946 24.55957 L -139.47946 -14.52431 L -47.51822 8.21998 L -47.51822 47.30385" />
    <path d="M -45.6941 7.95026 L -46.00213 8.00666" />
    <path d="M -3.44991 18.39829 L -13.32185 15.95672" />
    <path d="M -15.43722 15.43353 L -23.67844 13.39528" />
    <path d="M -43.69347 8.44507 L -45.6941 7.95026 L -45.6941 -31.13361 L -48.46232 -30.62679" />
    <path d="M -46.00213 18.323 L -33.6302 16.05788" />
    <path d="M -31.51483 15.67058 L -27.20406 14.88134" />
    <path d="M -27.20406 16.84636 L -25.57354 17.24963 L -23.67844 16.90266 L -23.67844 -3.7684" />
    <path d="M -33.6302 19.98791 L -32.65189 20.22987 L -31.51483 20.02169 L -31.51483 -5.70653" />
    <path d="M -71.82456 -5.29575 L -87.74341 -2.38124" />
    <path d="M -136.65897 25.25715 L -136.65897 25.58171 L -18.58791 54.78359" />
    <path d="M -50.30171 6.87901 L -50.30171 0.02738 L -71.82456 -5.29575" />
    <path d="M -66.22056 2.94189 L -50.30171 0.02738" />
    <path d="M 103.08319 -1.10637 L 103.08319 -9.07619" />
    <path d="M 110.6636 -12.0386 L 103.5104 -10.72896" />
    <path d="M 103.46572 -10.55613 L 125.25824 -5.1663" />
    <path d="M -51.98794 -0.38967 L -51.98794 -32.75814" />
    <path d="M -50.35743 0.0136 L -50.35743 -32.35487" />
    <path d="M -48.46232 7.33394 L -48.46232 -31.88617" />
    <path d="M -40.29618 7.82307 L -46.00213 8.86775" />
    <path d="M -46.00213 14.90316 L -33.6302 12.63804" />
    <path d="M -31.51483 12.25074 L -27.20406 11.46151" />
    <path d="M -27.20406 11.06108 L -31.51483 9.99492" />
    <path d="M -33.6302 9.47173 L -40.29618 7.82307" />
    <path d="M -27.20406 16.84636 L -27.20406 -4.64038" />
    <path d="M -27.20406 -9.6675 L -27.20406 -28.44017" />
    <path d="M -25.57354 17.24963 L -25.57354 -4.23711" />
    <path d="M -25.57354 -9.96602 L -25.57354 -28.7387" />
    <path d="M -23.67844 -10.31299 L -23.67844 -29.08566" />
    <path d="M -33.6302 19.98791 L -33.6302 -6.22972" />
    <path d="M -32.65189 20.22987 L -32.65189 -5.98776" />
    <path d="M -15.43722 15.50186 L -15.43722 -1.73015" />
    <path d="M -14.45891 15.74382 L -14.45891 -1.48819" />
    <path d="M -13.32185 16.02504 L -13.32185 -1.20696" />
    <path d="M 2.24121 17.35633 L 2.24121 2.64216" />
    <path d="M 3.21952 17.17722 L 3.21952 2.8632" />
    <path d="M 4.35658 16.96904 L 4.35658 2.65502" />
    <path d="M -136.65897 -14.47926 L -87.74341 -2.38124" />
    <path d="M -46.84075 -31.48511 L -48.46232 -31.18823" />
    <path d="M -51.98794 -30.54274 L -139.47946 -14.52431" />
    <path d="M -41.12865 -30.00447 L -40.97089 -30.03335" />
    <path d="M -41.12865 -30.00447 L -45.6941 -31.13361" />
    <path d="M -51.98794 -29.9813 L -136.65897 -14.47926" />
    <path d="M -66.22056 2.94189 L -46.00213 7.9424 L -46.00213 47.02628" />
    <path d="M -47.51822 8.21998 L -46.00213 7.9424" />
    <path d="M -3.60865 18.42736 L 125.25824 -5.1663" />
    <path d="M -21.87046 13.91076 L -3.60865 18.42736" />
    <path d="M 11.37061 55.74585 L 132.83865 33.50681" />
    <path d="M 132.83865 33.09114 L 132.83865 33.50681" />
    <path d="M -18.58791 56.25351 L 0 60.85076 L 0 32.51494 L 11.37061 30.43315 L 3.38107 28.45714" />
    <path d="M 0 60.85076 L 11.37061 58.76896 L 11.37061 30.43315" />
    <path d="M 135.65914 32.57475 L 11.37061 55.33018" />
    <path d="M -18.58791 54.45903 L -23.38654 53.27221 L -23.38654 14.18833 L -3.82032 19.02754 L 135.65914 -6.50913 L 104.41692 -14.2361" />
    <path d="M -36.61375 -6.96762 L 3.17091 2.8721 L 3.17091 1.895 L 11.39924 0.38852" />
    <path d="M 3.17091 2.8721 L 11.13413 1.41415" />
    <path d="M 14.99185 0.70786 L 19.63799 -0.14278" />
    <path d="M 16.91781 10.38099 L 16.91781 0.35524" />
    <path d="M 16.91781 -4.32996 L 16.91781 -4.91051" />
    <path d="M 16.91781 -8.23666 L 16.91781 -15.64815 L -17.64918 -24.19741 L -17.64918 -11.41686" />
    <path d="M 22.2241 -16.61965 L 16.91781 -15.64815" />
    <path d="M 22.2241 -5.03214 L 22.2241 -5.88201" />
    <path d="M 22.2241 -9.20816 L 22.2241 -16.61965 L 20.91968 -16.94226 L 17.12948 -16.24833 L -16.1331 -24.47499 L -17.64918 -24.19741" />
    <path d="M 70.22674 -11.86795 L 70.22674 -14.6706" />
    <path d="M 70.22674 -17.99675 L 70.22674 -22.03964" />
    <path d="M 110.6636 -12.0386 L 104.25839 -13.62277" />
    <path d="M 100.80406 -14.47711 L 87.3477 -17.8052" />
    <path d="M 79.61983 -19.71649 L 70.22674 -22.03964" />
    <path d="M -21.87046 13.91076 L -23.38654 14.18833" />
    <path d="M 62.64633 -20.65177 L 70.22674 -22.03964" />
    <path d="M 57.42867 -21.94223 L 62.64633 -20.65177" />
    <path d="M 61.21887 -22.63616 L 57.42867 -21.94223" />
    <path d="M 57.30563 -23.604 L 61.21887 -22.63616" />
    <path d="M 62.61191 -24.57551 L 57.30563 -23.604 L 57.30563 -15.63108" />
    <path d="M 100.96259 -15.09044 L 88.86378 -18.08277" />
    <path d="M 81.13592 -19.99406 L 62.61191 -24.57551" />
    <path d="M -62.06704 -35.25095 L -31.4133 -27.66952 L -31.4133 -28.15807 L -13.59934 -31.41955 L -44.25309 -39.00097 L -62.06704 -35.7395 L -31.4133 -28.15807" />
    <path d="M -31.4133 -27.66952 L -13.59934 -30.931 L -13.59934 -31.41955" />
    <path d="M -39.61257 -12.69429 L -39.61257 -29.6974" />
    <path d="M -27.30195 -9.64957 L -39.61257 -12.69429 L -41.12865 -12.41672 L -41.12865 -30.00447" />
    <path d="M -28.81803 -9.372 L -41.12865 -12.41672" />
    <path d="M -18.58791 56.25351 L -18.58791 27.9177 L 0 32.51494" />
    <path d="M -3.82032 29.77561 L 3.38107 28.45714" />
    <path d="M 135.65914 32.57475 L 135.65914 -6.50913" />
    <path d="M -3.82032 29.77561 L -3.82032 19.02754" />
    <path d="M 57.30563 -12.30493 L 57.30563 -11.70223" />
    <path d="M -14.41869 27.15437 L -3.82032 29.77561" />
    <path d="M -14.41869 27.15437 L -18.58791 27.9177" />
    <path d="M 57.23857 -11.44278 L 38.64313 -8.03822" />
    <path d="M 34.78541 -7.33193 L 17.54356 -4.1752 L 16.33151 -4.47497" />
    <path d="M 12.87718 -5.32931 L -14.25155 -12.03891 L -36.61375 -7.94472 L 3.17091 1.895" />
    <path d="M -36.61375 -6.96762 L -36.61375 -7.94472" />
    <path d="M 15.25696 -0.31778 L 19.9031 -1.16842" />
    <path d="M 62.64633 -10.48009 L 62.64633 -13.28274" />
    <path d="M 62.64633 -16.60889 L 62.64633 -20.65177" />
    <path d="M 57.42867 -12.17825 L 57.42867 -12.32746" />
    <path d="M 57.42867 -15.65361 L 57.42867 -21.94223" />
    <path d="M -62.06704 -35.25095 L -62.06704 -35.7395" />
    <path d="M 93.53783 -15.68739 L 89.10755 1.45236" />
    <path d="M 82.89794 -13.73938 L 93.53783 -15.68739 L 93.07818 -16.05172" />
    <path d="M 83.77922 -17.14888 L 83.77616 -17.1513 L 82.6391 -16.94313 L 82.64216 -16.9407 L 83.77922 -17.14888 Z" />
    <path d="M 78.46766 3.40037 L 83.77922 -17.14888" />
    <path d="M 77.3306 3.60855 L 82.64216 -16.9407" />
    <path d="M 79.04103 -13.03623 L 79.92232 -16.44572" />
    <path d="M 79.0441 -13.0338 L 79.04103 -13.03623" />
    <path d="M 74.61382 4.10596 L 79.0441 -13.0338" />
    <path d="M 60.44478 -9.62854 L 79.0441 -13.0338" />
    <path d="M 61.32606 -13.03803 L 61.323 -13.04046 L 60.18594 -12.83228 L 60.189 -12.82985 L 61.32606 -13.03803 Z" />
    <path d="M 56.0145 7.51122 L 61.32606 -13.03803" />
    <path d="M 54.87744 7.7194 L 60.189 -12.82985" />
    <path d="M 56.58787 -8.92538 L 57.46915 -12.33487" />
    <path d="M 56.59093 -8.92295 L 56.58787 -8.92538" />
    <path d="M 52.16066 8.2168 L 56.59093 -8.92295" />
    <path d="M 37.99162 -5.51769 L 56.59093 -8.92295" />
    <path d="M 38.8729 -8.92718 L 38.86984 -8.92961 L 37.73278 -8.72143 L 37.73584 -8.719 L 38.8729 -8.92718 Z" />
    <path d="M 33.56134 11.62207 L 38.8729 -8.92718" />
    <path d="M 32.42428 11.83025 L 37.73584 -8.719" />
    <path d="M 34.13471 -4.81453 L 35.01599 -8.22402" />
    <path d="M 34.13777 -4.8121 L 34.13471 -4.81453" />
    <path d="M 29.7075 12.32765 L 34.13777 -4.8121" />
    <path d="M 20.76594 -2.36392 L 34.13777 -4.8121" />
    <path d="M 16.33566 14.77584 L 20.76594 -2.36392 L 20.30628 -2.72824 L 34.25558 -5.28215" />
    <path d="M 15.75432 14.88228 L 20.30628 -2.72824" />
    <path d="M 38.1133 -5.98845 L 56.70874 -9.393" />
    <path d="M 60.56646 -10.0993 L 79.1619 -13.50385" />
    <path d="M 83.01962 -14.21014 L 93.07818 -16.05172" />
    <path d="M 105.09226 -21.05397 L 83.77616 -17.1513" />
    <path d="M 82.6391 -16.94313 L 61.323 -13.04046" />
    <path d="M 60.18594 -12.83228 L 38.86984 -8.92961" />
    <path d="M 37.73278 -8.72143 L 16.41668 -4.81876 L 15.27962 -4.61058 L 15.28268 -4.60815 L 16.41974 -4.81633 L 16.41668 -4.81876" />
    <path d="M 97.0631 -0.00418 L 102.37548 -20.55657" />
    <path d="M 99.78376 -0.5023 L 105.09532 -21.05154 L 106.23239 -21.25972 L 106.22932 -21.26215 L 105.09226 -21.05397 L 105.09532 -21.05154" />
    <path d="M 104.41886 -24.25683 L 13.454 -7.60248 L 13.11939 -6.30798 L 15.26445 -4.6078 L 15.59906 -5.9023 L 13.454 -7.60248" />
    <path d="M 15.27962 -4.61058 L 15.26445 -4.6078" />
    <path d="M 106.56392 -22.55665 L 15.59906 -5.9023" />
    <path d="M 106.22932 -21.26215 L 106.56392 -22.55665 L 104.41886 -24.25683" />
    <path d="M 11.10818 15.73292 L 16.41974 -4.81633" />
    <path d="M 100.92082 -0.71048 L 106.23239 -21.25972" />
    <path d="M 9.97112 15.9411 L 15.28268 -4.60815" />
    <path d="M 7.25046 16.43921 L 13.12832 -6.30091" />
</svg>