<svg version="1.1" xmlns="http://www.w3.org/2000/svg" viewBox="-138.81536849928432 -27.398275179627813 277.6307369985687 58.89371592929999" fill="none" stroke="black" stroke-width="0.6%" vector-effect="non-scaling-stroke">
    <path d="M 0.17285 29.79785 L 0.17285 30.49544 L 134.99223 17.26434" />
    <path d="M -19.87722 26.98712 L -42.89446 24.10051 L -44.39245 24.24753 L -137.81537 12.53129 L -137.81537 -17.28352 L -44.39245 -5.56729 L -44.39245 24.24753" />
    <path d="M -134.99223 12.88535 L -134.99223 13.5443 L 0.17285 30.49544" />
    <path d="M 134.99223 16.56675 L 134.99223 17.26434" />
    <path d="M -19.87722 6.89453 L -42.89446 4.00792" />
    <path d="M 0 29.81481 L -19.87722 27.322 L -19.87722 -2.49282 L 0 0 L 137.81537 -13.52512 L 63.60709 -22.83163 L 58.36412 -22.31709 L 62.33956 -21.81853 L 58.59458 -21.45099 L 63.89517 -20.78624 L 71.38513 -21.5213" />
    <path d="M 137.81537 16.28969 L 0 29.81481 L 0 0" />
    <path d="M -47.70532 -6.31763 L -47.70532 -9.83384 L -69.57026 -12.57593 L -85.29919 -11.03231" />
    <path d="M -63.43425 -8.29021 L -47.70532 -9.83384" />
    <path d="M 104.97475 -10.5984 L 104.97475 -15.63443 L 127.50226 -12.80924" />
    <path d="M 112.46471 -16.36949 L 104.97475 -15.63443" />
    <path d="M 63.89517 -6.56687 L 63.89517 -20.78624" />
    <path d="M 71.38513 -7.30193 L 71.38513 -21.5213" />
    <path d="M 58.59458 -8.53124 L 58.59458 -21.45099" />
    <path d="M 55.94428 -8.86362 L 58.59458 -8.53124" />
    <path d="M 55.94428 -5.78658 L 55.94428 -8.86362 L 37.08253 -7.01254" />
    <path d="M -19.4523 -2.53452 L -19.4523 -14.56395" />
    <path d="M -18.45844 -2.63205 L -18.45844 -14.43931" />
    <path d="M -17.33495 -2.50886 L -17.33495 -14.29841" />
    <path d="M 16.98926 -1.96355 L 16.98926 -9.99379" />
    <path d="M 17.98312 -2.06109 L 17.98312 -9.87076" />
    <path d="M 19.10661 -2.17135 L 19.10661 -9.98101" />
    <path d="M -1.47639 -0.52003 L -1.47639 -12.30958" />
    <path d="M -0.48253 -0.39539 L -0.48253 -12.18493" />
    <path d="M 0.64097 -0.35914 L 0.64097 -12.04404" />
    <path d="M 34.96518 -3.7277 L 34.96518 -11.53736" />
    <path d="M 35.95904 -3.82524 L 35.95904 -11.6349" />
    <path d="M 37.08253 -3.9355 L 37.08253 -11.74516" />
    <path d="M -18.37922 -2.63983 L -19.87722 -2.49282" />
    <path d="M -44.39245 -5.56729 L -42.89446 -5.7143 L -42.89446 24.10051" />
    <path d="M -44.93979 -26.39827 L -137.81537 -17.28352" />
    <path d="M -38.97663 -25.65043 L -44.93979 -26.39827" />
    <path d="M -38.97663 -17.69981 L -38.97663 -25.65043" />
    <path d="M -22.44109 -15.62608 L -38.97663 -17.69981 L -40.47462 -17.5528 L -40.47462 -25.50342 L -38.97663 -25.65043" />
    <path d="M 18.6673 -18.42127 L -15.12397 -22.65905 L -16.62196 -22.51204 L -16.62196 -16.50369" />
    <path d="M 22.41228 -18.7888 L 18.6673 -18.42127" />
    <path d="M 58.36412 -9.39734 L 37.08253 -7.30877" />
    <path d="M 34.96518 -7.10098 L 23.73743 -5.99909" />
    <path d="M 58.36412 -22.31709 L 58.36412 -9.39734" />
    <path d="M 137.81537 16.28969 L 137.81537 -13.52512" />
    <path d="M -63.43425 -8.29021 L -42.89446 -5.7143" />
    <path d="M -40.47462 -25.50342 L -45.11264 -26.08507 L -134.99223 -17.26434 L -85.29919 -11.03231" />
    <path d="M 0.17285 -0.3132 L 127.50226 -12.80924" />
    <path d="M -18.37922 -2.63983 L 0.17285 -0.3132" />
    <path d="M 112.46471 -16.36949 L 71.38513 -21.5213" />
    <path d="M 58.59458 -9.36843 L 58.36412 -9.39734" />
    <path d="M 34.96518 -6.80474 L 23.73743 -5.70286 L 23.73743 -10.43548" />
    <path d="M 18.49445 -15.73827 L 18.49445 -18.10807 L -16.62196 -22.51204" />
    <path d="M 23.73743 -18.62261 L 18.49445 -18.10807" />
    <path d="M 23.73743 -15.08075 L 23.73743 -18.62261 L 22.41228 -18.7888" />
    <path d="M -22.44109 -14.93877 L 17.97592 -9.87005 L 17.97592 -10.86388 L 40.07132 -13.03231 L -0.34569 -18.10103 L -22.44109 -15.9326 L 17.97592 -10.86388" />
    <path d="M 17.97592 -9.87005 L 40.07132 -12.03848 L 40.07132 -13.03231" />
    <path d="M -22.44109 -15.2912 L -40.47462 -17.5528" />
    <path d="M -45.11264 -5.99248 L -45.11264 -26.08507" />
    <path d="M -22.44109 -14.93877 L -22.44109 -15.9326" />
</svg>