<svg version="1.1" xmlns="http://www.w3.org/2000/svg" viewBox="-138.81536849928432 -27.398275179627813 277.6307369985687 58.89371592929999" fill="none" stroke="black" stroke-width="0.6%" vector-effect="non-scaling-stroke">
    <path d="M 0.17285 29.79785 L 0.17285 30.49544 L 134.99223 17.26434" />
    <path d="M -134.99223 12.88535 L -134.99223 13.5443 L 0.17285 30.49544" />
    <path d="M 134.99223 16.56675 L 134.99223 17.26434" />
    <path d="M -19.4523 -2.7744 L -19.4523 -14.56395" />
    <path d="M -18.45844 -2.64976 L -18.45844 -14.43931" />
    <path d="M -17.33495 -2.50886 L -17.33495 -14.29841" />
    <path d="M 16.98926 -1.96355 L 16.98926 -9.99379" />
    <path d="M 17.98312 -2.06109 L 17.98312 -9.87076" />
    <path d="M 19.10661 -2.17135 L 19.10661 -9.98101" />
    <path d="M -1.47639 -0.52003 L -1.47639 -12.30958" />
    <path d="M -0.48253 -0.39539 L -0.48253 -12.18493" />
    <path d="M 0.64097 -0.35914 L 0.64097 -12.04404" />
    <path d="M 34.96518 -3.7277 L 34.96518 -11.53736" />
    <path d="M 35.95904 -3.82524 L 35.95904 -11.6349" />
    <path d="M 37.08253 -3.9355 L 37.08253 -11.74516" />
    <path d="M -22.44109 -14.93877 L 17.97592 -9.87005 L 17.97592 -10.86388 L 40.07132 -13.03231 L -0.34569 -18.10103 L -22.44109 -15.9326 L 17.97592 -10.86388" />
    <path d="M 17.97592 -9.87005 L 40.07132 -12.03848 L 40.07132 -13.03231" />
    <path d="M -22.44109 -14.93877 L -22.44109 -15.9326" />
    <path d="M -134.99223 -17.26434 L 0.17285 -0.3132 L 134.99223 -13.5443 L 63.43425 -22.51843 L 18.49445 -18.10807 L -45.11264 -26.08507 L -134.99223 -17.26434 Z" />
    <path d="M 0 29.81481 L -137.81537 12.53129 L -137.81537 -17.28352 L 0 0 L 137.81537 -13.52512 L 63.60709 -22.83163 L 18.6673 -18.42127 L -44.93979 -26.39827 L -137.81537 -17.28352" />
    <path d="M 137.81537 16.28969 L 0 29.81481 L 0 0" />
    <path d="M -45.11264 -5.99248 L -45.11264 -26.08507" />
    <path d="M 137.81537 16.28969 L 137.81537 -13.52512" />
    <path d="M 18.49445 -15.73827 L 18.49445 -18.10807" />
    <path d="M 63.43425 -6.52164 L 63.43425 -22.51843" />
</svg>