<svg version="1.1" xmlns="http://www.w3.org/2000/svg" viewBox="-138.88801317595198 -39.36474391249726 277.6104945245462 101.39419523143711" fill="none" stroke="black" stroke-width="0.6%" vector-effect="non-scaling-stroke">
    <path d="M -20.02935 55.01914 L -43.02928 49.23968 L -44.52806 49.53369 L -137.88801 26.07406 L -137.88801 -12.92762 L -44.52806 10.53202 L -44.52806 49.53369" />
    <path d="M -45.13801 8.47209 L -47.73142 8.98083" />
    <path d="M 2.77139 20.51084 L -12.22799 16.74177" />
    <path d="M -14.34527 16.20974 L -22.57058 14.14287" />
    <path d="M -42.66747 9.09289 L -45.13801 8.47209 L -45.13801 -30.36621" />
    <path d="M -43.02928 18.94628 L -32.33066 16.84756" />
    <path d="M -30.21338 16.43222 L -26.09938 15.62518" />
    <path d="M -26.09938 17.69906 L -24.44406 18.11501 L -22.57058 17.7475 L -22.57058 -2.69519" />
    <path d="M -32.33066 20.99531 L -31.33747 21.24488 L -30.21338 21.02437 L -30.21338 -4.61568" />
    <path d="M -13.30425 17.70736 L -12.22799 17.49623 L -12.22799 -0.09628" />
    <path d="M -69.66821 -3.49747 L -85.40543 -0.41034" />
    <path d="M 0.009 60.64694 L 0.009 61.02945 L 134.89944 34.56837" />
    <path d="M -135.06497 26.78343 L -135.06497 27.08785 L 0.009 61.02945" />
    <path d="M -47.81801 9.03469 L -47.81801 1.99309 L -69.66821 -3.49747" />
    <path d="M -63.55523 5.08021 L -47.81801 1.99309" />
    <path d="M 104.8932 0.47789 L 104.8932 -5.83102" />
    <path d="M 112.38711 -11.06528 L 105.93926 -9.80042" />
    <path d="M 105.82357 -9.36143 L 127.40553 -3.93829" />
    <path d="M -51.26021 1.12812 L -51.26021 -31.90461" />
    <path d="M -49.6049 1.54407 L -49.6049 -31.48866" />
    <path d="M -47.73142 9.05644 L -47.73142 -31.01789" />
    <path d="M -39.53692 8.47878 L -45.42986 9.63478" />
    <path d="M -43.02928 15.53363 L -32.33066 13.43491" />
    <path d="M -30.21338 13.01957 L -26.09938 12.21254" />
    <path d="M -26.09938 11.85539 L -30.21338 10.82161" />
    <path d="M -32.33066 10.28958 L -39.53692 8.47878" />
    <path d="M -26.09938 17.69906 L -26.09938 -3.58191" />
    <path d="M -26.09938 -8.68236 L -26.09938 -27.39941" />
    <path d="M -24.44406 18.11501 L -24.44406 -3.16596" />
    <path d="M -24.44406 -9.00708 L -24.44406 -27.72413" />
    <path d="M -22.57058 -9.3746 L -22.57058 -28.09165" />
    <path d="M -32.33066 20.99531 L -32.33066 -5.14771" />
    <path d="M -31.33747 21.24488 L -31.33747 -4.89814" />
    <path d="M -14.34527 17.44577 L -14.34527 -0.62832" />
    <path d="M -13.35208 17.69534 L -13.35208 -0.37875" />
    <path d="M 4.08634 20.25289 L 4.08634 4.00321" />
    <path d="M 5.07953 20.05806 L 5.07953 4.24875" />
    <path d="M 6.20362 19.83755 L 6.20362 4.02824" />
    <path d="M 21.88956 5.76784 L 21.88956 0.95118" />
    <path d="M 22.07173 5.07655 L 22.07173 0.91544" />
    <path d="M 23.06493 1.30776 L 23.06493 0.72061" />
    <path d="M -135.06497 -12.88887 L -85.40543 -0.41034" />
    <path d="M -46.8274 -30.79072 L -47.73142 -30.61338" />
    <path d="M -51.26021 -29.92115 L -137.88801 -12.92762" />
    <path d="M -45.50314 -30.45796 L -47.73142 -30.02085" />
    <path d="M -51.26021 -29.32861 L -135.06497 -12.88887" />
    <path d="M -63.55523 5.08021 L -43.02928 10.238 L -43.02928 49.23968" />
    <path d="M -44.52806 10.53202 L -43.02928 10.238" />
    <path d="M 134.89944 34.18587 L 134.89944 34.56837" />
    <path d="M -0.16553 60.68118 L -20.02935 55.68977 L -20.02935 16.68809 L -0.16553 21.6795 L 137.72248 -5.3696 L 106.8181 -13.1353" />
    <path d="M 115.61543 37.96876 L -0.16553 60.68118 L -0.16553 21.6795" />
    <path d="M 115.61543 37.96876 L 115.78097 38.01035 L 115.78097 9.73414 L 127.02184 7.52905 L 126.85631 7.48745" />
    <path d="M 115.78097 38.01035 L 127.02184 35.80526 L 127.02184 7.52905" />
    <path d="M 137.72248 33.63208 L 127.02184 35.7312" />
    <path d="M -35.31923 -5.89869 L 5.07054 4.25052 L 5.07054 3.27548 L 15.11156 1.30576" />
    <path d="M 5.07054 4.25052 L 14.8406 2.33395" />
    <path d="M 18.74544 1.56795 L 23.22809 0.6886" />
    <path d="M 18.42621 17.43988 L 18.42621 2.77931" />
    <path d="M 18.42621 -5.48336 L 18.42621 -14.55707 L -16.66654 -23.37523 L -16.66654 -10.53277" />
    <path d="M 23.67195 -15.58611 L 18.42621 -14.55707" />
    <path d="M 23.67195 -6.5124 L 23.67195 -15.58611 L 22.3477 -15.91887 L 18.60074 -15.18384 L -15.16775 -23.66924 L -16.66654 -23.37523" />
    <path d="M 72.15292 -9.96241 L 71.33522 -10.16788 L 71.33522 -12.49841" />
    <path d="M 71.33522 -15.86237 L 71.33522 -21.38086" />
    <path d="M 112.38711 -11.06528 L 106.65235 -12.50632" />
    <path d="M 103.17936 -13.37902 L 91.18655 -16.39259" />
    <path d="M 83.66846 -18.28175 L 71.33522 -21.38086" />
    <path d="M -18.53057 16.39408 L -20.02935 16.68809" />
    <path d="M -18.53057 16.39408 L 0.009 21.05273 L 127.40553 -3.93829" />
    <path d="M 63.84131 -19.9108 L 71.33522 -21.38086" />
    <path d="M 58.54429 -21.24185 L 63.84131 -19.9108" />
    <path d="M 62.29125 -21.97688 L 58.54429 -21.24185" />
    <path d="M 58.31848 -22.97516 L 62.29125 -21.97688" />
    <path d="M 63.56422 -24.0042 L 58.31848 -22.97516 L 58.31848 -13.30892" />
    <path d="M 103.34511 -14.008 L 92.68534 -16.6866" />
    <path d="M 85.16724 -18.57576 L 63.56422 -24.0042" />
    <path d="M -61.28074 -34.42258 L -30.16075 -26.6027 L -30.16075 -27.09022 L -12.55006 -30.54486 L -43.67004 -38.36474 L -61.28074 -34.9101 L -30.16075 -27.09022" />
    <path d="M -30.16075 -26.6027 L -12.55006 -30.05734 L -12.55006 -30.54486" />
    <path d="M -39.00434 -12.10818 L -39.00434 -28.82493" />
    <path d="M -26.09938 -8.8654 L -39.00434 -12.10818 L -40.50312 -11.81417 L -40.50312 -29.20155" />
    <path d="M -27.18908 -8.4686 L -40.50312 -11.81417" />
    <path d="M 115.61543 9.69254 L 115.61543 37.96876" />
    <path d="M 115.61543 9.69254 L 126.85631 7.48745" />
    <path d="M 137.72248 33.63208 L 137.72248 -5.3696" />
    <path d="M 115.61543 9.69254 L 115.78097 9.73414" />
    <path d="M 16.44598 -3.75786 L -13.21218 -11.21041 L -35.31923 -6.87373 L 5.07054 3.27548" />
    <path d="M -35.31923 -5.89869 L -35.31923 -6.87373" />
    <path d="M 19.0164 0.53975 L 23.49905 -0.33959" />
    <path d="M 63.84131 -8.69782 L 71.33522 -10.16788" />
    <path d="M 58.63283 -10.00662 L 60.09486 -9.63924" />
    <path d="M 63.56785 -8.76654 L 63.84131 -8.69782 L 63.84131 -9.80422" />
    <path d="M 63.84131 -14.39231 L 63.84131 -19.9108" />
    <path d="M 58.54429 -13.35321 L 58.54429 -21.24185" />
    <path d="M -61.28074 -34.42258 L -61.28074 -34.9101" />
    <path d="M 95.9291 -14.1676 L 91.37049 3.13061" />
    <path d="M 85.50161 -12.12207 L 95.9291 -14.1676 L 95.46245 -14.53497" />
    <path d="M 86.37761 -15.44617 L 86.3745 -15.44862 L 85.25041 -15.22811 L 85.25353 -15.22566 L 86.37761 -15.44617 Z" />
    <path d="M 80.943 5.17614 L 86.37761 -15.44617" />
    <path d="M 79.81892 5.39665 L 85.25353 -15.22566" />
    <path d="M 81.59762 -11.3593 L 82.47362 -14.6834" />
    <path d="M 81.60073 -11.35685 L 81.59762 -11.3593" />
    <path d="M 77.04213 5.94136 L 81.60073 -11.35685" />
    <path d="M 63.30464 -7.76775 L 81.60073 -11.35685" />
    <path d="M 64.18064 -11.09186 L 64.17753 -11.09431 L 63.05344 -10.8738 L 63.05655 -10.87135 L 64.18064 -11.09186 Z" />
    <path d="M 58.74603 9.53045 L 64.18064 -11.09186" />
    <path d="M 57.62194 9.75096 L 63.05655 -10.87135" />
    <path d="M 59.40065 -7.00498 L 60.27665 -10.32908" />
    <path d="M 59.40376 -7.00253 L 59.40065 -7.00498" />
    <path d="M 54.84515 10.29568 L 59.40376 -7.00253" />
    <path d="M 41.10767 -3.41344 L 59.40376 -7.00253" />
    <path d="M 41.98367 -6.73754 L 41.98056 -6.73999 L 40.85647 -6.51948 L 40.85958 -6.51703 L 41.98367 -6.73754 Z" />
    <path d="M 36.54906 13.88477 L 41.98367 -6.73754" />
    <path d="M 35.42497 14.10528 L 40.85958 -6.51703" />
    <path d="M 37.20368 -2.65066 L 38.07968 -5.97476" />
    <path d="M 37.20679 -2.64821 L 37.20368 -2.65066" />
    <path d="M 32.64818 14.64999 L 37.20679 -2.64821" />
    <path d="M 23.98752 -0.05503 L 37.20679 -2.64821" />
    <path d="M 19.42892 17.24318 L 23.98752 -0.05503 L 23.52088 -0.4224 L 37.33036 -3.13137" />
    <path d="M 18.83474 17.35974 L 23.52088 -0.4224" />
    <path d="M 41.2352 -3.89737 L 59.52733 -7.48568" />
    <path d="M 63.43217 -8.25169 L 81.7243 -11.84" />
    <path d="M 85.62914 -12.606 L 95.46245 -14.53497" />
    <path d="M 107.44739 -19.58243 L 86.3745 -15.44862" />
    <path d="M 85.25041 -15.22811 L 64.17753 -11.09431" />
    <path d="M 63.05344 -10.8738 L 41.98056 -6.73999" />
    <path d="M 40.85647 -6.51948 L 19.78358 -2.38567 L 18.6595 -2.16516 L 18.66261 -2.16271 L 19.7867 -2.38322 L 19.78358 -2.38567" />
    <path d="M 99.23514 1.58782 L 104.6706 -19.03772" />
    <path d="M 102.01589 1.04233 L 107.4505 -19.57998 L 108.57458 -19.80049 L 108.57147 -19.80294 L 107.44739 -19.58243 L 107.4505 -19.57998" />
    <path d="M 106.73348 -22.80635 L 16.80651 -5.16563 L 16.46682 -3.87663 L 18.64451 -2.16222 L 18.9842 -3.45122 L 16.80651 -5.16563" />
    <path d="M 18.6595 -2.16516 L 18.64451 -2.16222" />
    <path d="M 108.91117 -21.09194 L 18.9842 -3.45122" />
    <path d="M 108.57147 -19.80294 L 108.91117 -21.09194 L 106.73348 -22.80635" />
    <path d="M 14.35209 18.23909 L 19.7867 -2.38322" />
    <path d="M 103.13998 0.82182 L 108.57458 -19.80049" />
    <path d="M 13.228 18.4596 L 18.66261 -2.16271" />
    <path d="M 10.44725 19.00509 L 16.47548 -3.86981" />
</svg>